<svg xmlns="http://www.w3.org/2000/svg" width="1100" height="430" viewBox="0 0 1100 430" role="img" aria-labelledby="title desc">
<title id="title">Current biomedical ensemble and classical PR-AUC comparison</title>
<desc id="desc">Horizontal bar chart comparing the current 256D plus mechanism-of-action protocol ensemble seed 42, ensemble five-seed mean, and HistGBDT five-seed mean.</desc>
<rect width="1100" height="430" fill="#f6f3ec"/>
<text x="54" y="52" font-family="Arial, Helvetica, sans-serif" font-size="15" font-weight="700" letter-spacing="2" fill="#171716">HYBRID QML–KG / CURRENT REPRODUCIBLE COMPARISON</text>
<text x="54" y="82" font-family="Arial, Helvetica, sans-serif" font-size="12" fill="#77736b">256D RotatE + mechanism-of-action features · test PR-AUC · higher is better</text>
<g font-family="Arial, Helvetica, sans-serif">
  <line x1="300" y1="112" x2="300" y2="350" stroke="#aaa59b"/>
  <line x1="450" y1="112" x2="450" y2="350" stroke="#ddd7cc"/>
  <line x1="600" y1="112" x2="600" y2="350" stroke="#ddd7cc"/>
  <line x1="750" y1="112" x2="750" y2="350" stroke="#ddd7cc"/>
  <line x1="900" y1="112" x2="900" y2="350" stroke="#ddd7cc"/>
  <text x="300" y="374" text-anchor="middle" font-size="10" fill="#77736b">0.0</text>
  <text x="450" y="374" text-anchor="middle" font-size="10" fill="#77736b">0.2</text>
  <text x="600" y="374" text-anchor="middle" font-size="10" fill="#77736b">0.4</text>
  <text x="750" y="374" text-anchor="middle" font-size="10" fill="#77736b">0.6</text>
  <text x="900" y="374" text-anchor="middle" font-size="10" fill="#77736b">0.8</text>

  <text x="54" y="157" font-size="13" fill="#171716" font-weight="700">Ensemble · seed 42</text>
  <rect x="300" y="132" width="585.4" height="38" fill="#235f99"/>
  <text x="901" y="157" font-size="13" fill="#235f99" font-weight="700">0.7805</text>

  <text x="54" y="237" font-size="13" fill="#171716" font-weight="700">Ensemble · 5-seed mean</text>
  <rect x="300" y="212" width="554.9" height="38" fill="#5b8bb7"/>
  <text x="871" y="237" font-size="13" fill="#235f99" font-weight="700">0.7398 ± 0.038</text>

  <text x="54" y="317" font-size="13" fill="#171716" font-weight="700">HistGBDT · 5-seed mean</text>
  <rect x="300" y="292" width="554.5" height="38" fill="#77736b"/>
  <text x="871" y="317" font-size="13" fill="#55514b" font-weight="700">0.7393 ± 0.037</text>

  <rect x="54" y="396" width="992" height="1" fill="#171716"/>
  <text x="54" y="419" font-size="11" fill="#55514b">Protocol-consistent public summary. Quantum configurations are documented separately in the repository evidence audit.</text>
</g>
</svg>